# xmcd
#
# Track frame offsets:
#        150
#        22337
#        41572
#        60580
#        80110
#        101952
#
# Disc length: 1636 seconds
#
# Revision: 0
# Processed by: cddbd v1.5.1PL0 Copyright (c) Steve Scherf et al.
# Submitted via: ExactAudioCopy v0.95a5
#
DISCID=52066206
DTITLE=B-2 DEP'T - ASCENDING
DYEAR=1900
DGENRE=JPop
TTITLE0=LOVELOVELOVE
TTITLE1=CLOCKWORK GIANT PANDA
TTITLE2=BIG BREAKTHROUGH
TTITLE3=ASCENDING
TTITLE4=TOKYO GARDEN
TTITLE5=TRANSPACIFIC ocean liner edit
EXTD=
EXTT0=
EXTT1=
EXTT2=
EXTT3=
EXTT4=
EXTT5=
PLAYORDER=
